<svg xmlns="http://www.w3.org/2000/svg" xmlns:xlink="http://www.w3.org/1999/xlink" version="1.1" class="marks" width="276" height="195" viewBox="0 0 276 195"><g fill="none" stroke-miterlimit="10" transform="translate(68,5)"><g class="mark-group role-frame root" role="graphics-object" aria-roledescription="group mark container"><g transform="translate(0,0)"><path class="background" aria-hidden="true" d="M0.5,0.5h200v160h-200Z" stroke="#ddd"/><g><g class="mark-group role-axis" aria-hidden="true"><g transform="translate(0.5,160.5)"><path class="background" aria-hidden="true" d="M0,0h0v0h0Z" pointer-events="none"/><g><g class="mark-rule role-axis-grid" pointer-events="none"><line transform="translate(0,0)" x2="0" y2="-160" stroke="#ddd" stroke-width="1" opacity="1"/><line transform="translate(40,0)" x2="0" y2="-160" stroke="#ddd" stroke-width="1" opacity="1"/><line transform="translate(80,0)" x2="0" y2="-160" stroke="#ddd" stroke-width="1" opacity="1"/><line transform="translate(120,0)" x2="0" y2="-160" stroke="#ddd" stroke-width="1" opacity="1"/><line transform="translate(160,0)" x2="0" y2="-160" stroke="#ddd" stroke-width="1" opacity="1"/><line transform="translate(200,0)" x2="0" y2="-160" stroke="#ddd" stroke-width="1" opacity="1"/></g></g><path class="foreground" aria-hidden="true" d="" pointer-events="none" display="none"/></g></g><g class="mark-group role-axis" role="graphics-symbol" aria-roledescription="axis" aria-label="X-axis for a linear scale with values from 0 to 5"><g transform="translate(0.5,160.5)"><path class="background" aria-hidden="true" d="M0,0h0v0h0Z" pointer-events="none"/><g><g class="mark-rule role-axis-tick" pointer-events="none"><line transform="translate(0,0)" x2="0" y2="5" stroke="#888" stroke-width="1" opacity="1"/><line transform="translate(40,0)" x2="0" y2="5" stroke="#888" stroke-width="1" opacity="1"/><line transform="translate(80,0)" x2="0" y2="5" stroke="#888" stroke-width="1" opacity="1"/><line transform="translate(120,0)" x2="0" y2="5" stroke="#888" stroke-width="1" opacity="1"/><line transform="translate(160,0)" x2="0" y2="5" stroke="#888" stroke-width="1" opacity="1"/><line transform="translate(200,0)" x2="0" y2="5" stroke="#888" stroke-width="1" opacity="1"/></g><g class="mark-text role-axis-label" pointer-events="none"><text text-anchor="end" transform="translate(0,7) rotate(345) translate(0,8)" font-family="sans-serif" font-size="10px" fill="#000" opacity="1"/><text text-anchor="end" transform="translate(40,7) rotate(345) translate(0,8)" font-family="sans-serif" font-size="10px" fill="#000" opacity="1">★</text><text text-anchor="end" transform="translate(80,7) rotate(345) translate(0,8)" font-family="sans-serif" font-size="10px" fill="#000" opacity="1">★★</text><text text-anchor="end" transform="translate(120,7) rotate(345) translate(0,8)" font-family="sans-serif" font-size="10px" fill="#000" opacity="1">★★★</text><text text-anchor="end" transform="translate(160,7) rotate(345) translate(0,8)" font-family="sans-serif" font-size="10px" fill="#000" opacity="1">★★★★</text><text text-anchor="end" transform="translate(200,7) rotate(345) translate(0,8)" font-family="sans-serif" font-size="10px" fill="#000" opacity="1">★★★★★</text></g><g class="mark-rule role-axis-domain" pointer-events="none"><line transform="translate(0,0)" x2="200" y2="0" stroke="#888" stroke-width="1" opacity="1"/></g></g><path class="foreground" aria-hidden="true" d="" pointer-events="none" display="none"/></g></g><g class="mark-group role-axis" role="graphics-symbol" aria-roledescription="axis" aria-label="Y-axis for a discrete scale with 8 values: Golang, Python, Terraform, JS, NodeJS, K8S, Docker, ending with Rust"><g transform="translate(0.5,0.5)"><path class="background" aria-hidden="true" d="M0,0h0v0h0Z" pointer-events="none"/><g><g class="mark-rule role-axis-tick" pointer-events="none"><line transform="translate(0,10)" x2="-5" y2="0" stroke="#888" stroke-width="1" opacity="1"/><line transform="translate(0,30)" x2="-5" y2="0" stroke="#888" stroke-width="1" opacity="1"/><line transform="translate(0,50)" x2="-5" y2="0" stroke="#888" stroke-width="1" opacity="1"/><line transform="translate(0,70)" x2="-5" y2="0" stroke="#888" stroke-width="1" opacity="1"/><line transform="translate(0,90)" x2="-5" y2="0" stroke="#888" stroke-width="1" opacity="1"/><line transform="translate(0,110)" x2="-5" y2="0" stroke="#888" stroke-width="1" opacity="1"/><line transform="translate(0,130)" x2="-5" y2="0" stroke="#888" stroke-width="1" opacity="1"/><line transform="translate(0,150)" x2="-5" y2="0" stroke="#888" stroke-width="1" opacity="1"/></g><g class="mark-text role-axis-label" pointer-events="none"><text text-anchor="end" transform="translate(-7,12.5)" font-family="sans-serif" font-size="10px" fill="#000" opacity="1">Golang</text><text text-anchor="end" transform="translate(-7,32.5)" font-family="sans-serif" font-size="10px" fill="#000" opacity="1">Python</text><text text-anchor="end" transform="translate(-7,52.5)" font-family="sans-serif" font-size="10px" fill="#000" opacity="1">Terraform</text><text text-anchor="end" transform="translate(-7,72.5)" font-family="sans-serif" font-size="10px" fill="#000" opacity="1">JS, NodeJS</text><text text-anchor="end" transform="translate(-7,92.5)" font-family="sans-serif" font-size="10px" fill="#000" opacity="1">K8S, Docker</text><text text-anchor="end" transform="translate(-7,112.5)" font-family="sans-serif" font-size="10px" fill="#000" opacity="1">PostgreSQL</text><text text-anchor="end" transform="translate(-7,132.5)" font-family="sans-serif" font-size="10px" fill="#000" opacity="1">Elasticsearch</text><text text-anchor="end" transform="translate(-7,152.5)" font-family="sans-serif" font-size="10px" fill="#000" opacity="1">Rust</text></g><g class="mark-rule role-axis-domain" pointer-events="none"><line transform="translate(0,0)" x2="0" y2="160" stroke="#888" stroke-width="1" opacity="1"/></g></g><path class="foreground" aria-hidden="true" d="" pointer-events="none" display="none"/></g></g><g class="mark-rect role-mark marks" role="graphics-object" aria-roledescription="rect mark container"><path aria-label="level: 5; skill: Golang" role="graphics-symbol" aria-roledescription="bar" d="M0,1h200v18h-200Z" fill="#fcfcfc" stroke="#222222"/><path aria-label="level: 5; skill: Python" role="graphics-symbol" aria-roledescription="bar" d="M0,21h200v18h-200Z" fill="#fcfcfc" stroke="#222222"/><path aria-label="level: 4; skill: JS, NodeJS" role="graphics-symbol" aria-roledescription="bar" d="M0,61h160v18h-160Z" fill="#fcfcfc" stroke="#222222"/><path aria-label="level: 5; skill: Terraform" role="graphics-symbol" aria-roledescription="bar" d="M0,41h200v18h-200Z" fill="#fcfcfc" stroke="#222222"/><path aria-label="level: 4; skill: K8S, Docker" role="graphics-symbol" aria-roledescription="bar" d="M0,81h160v18h-160Z" fill="#fcfcfc" stroke="#222222"/><path aria-label="level: 3; skill: PostgreSQL" role="graphics-symbol" aria-roledescription="bar" d="M0,101h120v18h-120Z" fill="#fcfcfc" stroke="#222222"/><path aria-label="level: 3; skill: Elasticsearch" role="graphics-symbol" aria-roledescription="bar" d="M0,121h120v18h-120Z" fill="#fcfcfc" stroke="#222222"/><path aria-label="level: 2; skill: Rust" role="graphics-symbol" aria-roledescription="bar" d="M0,141h80v18h-80Z" fill="#fcfcfc" stroke="#222222"/></g></g><path class="foreground" aria-hidden="true" d="" display="none"/></g></g></g></svg>
